{"title":"The Little Unicorn 2002 DVDrip English Klam","uid":8414906,"size":947878068,"categoryP":"video","categoryS":"movies","magnet":"?xt=urn:btih:37e2e9de9f171a5b30b9dd4b09f7c01d39c3d4bc&amp;dn=The+Little+Unicorn+2002+DVDrip+English+Klam&amp;tr=udp%3A%2F%2Ftracker.openbittorrent.com%3A80&amp;tr=udp%3A%2F%2Fopen.demonii.com%3A1337&amp;tr=udp%3A%2F%2Ftracker.coppersurfer.tk%3A6969&amp;tr=udp%3A%2F%2Fexodus.desync.com%3A6969","seeders":0,"leechers":1,"uploader":"Klambake","files":-1,"time":1367007633,"description":"With: Brittney Bomann, Byron Taylor and Emma Samms\n\nEen jong weesmeisje groeit op bij haar grootvader. Als haar favoriete merrie tijdens een bevalling overlijdt, blijkt de pony geen paard maar een eenhoorn te zijn. Al snel krijgt de pers er lucht van en wordt de boerderij overspoeld met vreemde types als een tovenaar en een circusdirecteur.\n\nIn this story of magic and adventure, tomboy, Polly Regan is an orphan and her grandfather has made a home for her on his farm...\n &lt;a href=&quot;\nhttp://www.imdb.com/title/tt0277800&quot; rel=&quot;nofollow&quot; target=&quot;_NEW&quot;&gt;\nhttp://www.imdb.com/title/tt0277800&lt;/a&gt;\n\n------------------------ Dutch Friends ------------------------\n---------------------------------------------------------------\n- Bezoek ook eens mijn vrienden op: &lt;a href=&quot; http://www.Film-Test.nl&quot; rel=&quot;nofollow&quot; target=&quot;_NEW&quot;&gt; http://www.Film-Test.nl&lt;/a&gt; --\n----- voor mijn Nederlandse Sync. ondertitels ---- en meer ----\n------- http://www.Film-Test.nl ---- Over Films en meer -------\n---------------------------------------------------------------\n\nGeneral:\n\nComplete name                    : The Little UnicornThe Little Unicorn.avi\nFormat                           : AVI\nFormat/Info                      : Audio Video Interleave\nFile size                        : 904 MiB\nDuration                         : 1h 21mn\nOverall bit rate                 : 1 557 Kbps\n\nVideo:\n\nFormat                           : MPEG-4 Visual\nFormat profile                   : Simple@L3\nFormat settings, BVOP            : No\nFormat settings, QPel            : No\nFormat settings, GMC             : No warppoints\nFormat settings, Matrix          : Default (H.263)\nCodec ID                         : XVID\nCodec ID/Hint                    : XviD\nDuration                         : 1h 21mn\nBit rate                         : 1 354 Kbps\nWidth                            : 640 pixels\nHeight                           : 480 pixels\nDisplay aspect ratio             : 4:3\nFrame rate                       : 25.000 fps\nColor space                      : YUV\nChroma subsampling               : 4:2:0\nBit depth                        : 8 bits\nScan type                        : Progressive\nCompression mode                 : Lossy\nBits/(Pixel*Frame)               : 0.176\nStream size                      : 786 MiB (87%)\nWriting library                  : XviD 1.1.2 (UTC 2006-11-01)\n\nAudio:\n\nFormat                           : AC-3\nFormat/Info                      : Audio Coding 3\nMode extension                   : CM (complete main)\nCodec ID                         : 2000\nDuration                         : 1h 21mn\nBit rate mode                    : Constant\nBit rate                         : 192 Kbps\nChannel(s)                       : 2 channels\nChannel positions                : Front: L R\nSampling rate                    : 48.0 KHz\nBit depth                        : 16 bits\nCompression mode                 : Lossy\nStream size                      : 111 MiB (12%)\nAlignment                        : Aligned on interleaves\nInterleave, duration             : 32 ms (0.80 video frame)\nInterleave, preload duration     : 160 ms","torrent":{"xt":"urn:btih:37e2e9de9f171a5b30b9dd4b09f7c01d39c3d4bc","amp;dn":"The+Little+Unicorn+2002+DVDrip+English+Klam","amp;tr":["udp%3A%2F%2Ftracker.openbittorrent.com%3A80","udp%3A%2F%2Fopen.demonii.com%3A1337","udp%3A%2F%2Ftracker.coppersurfer.tk%3A6969","udp%3A%2F%2Fexodus.desync.com%3A6969"],"infoHash":"37e2e9de9f171a5b30b9dd4b09f7c01d39c3d4bc","infoHashBuffer":{"type":"Buffer","data":[55,226,233,222,159,23,26,91,48,185,221,75,9,247,192,29,57,195,212,188]},"announce":[],"urlList":[]}}